<?xml version="1.0" encoding="UTF-8" standalone="no"?>
<svg
   xmlns:dc="http://purl.org/dc/elements/1.1/"
   xmlns:cc="http://creativecommons.org/ns#"
   xmlns:rdf="http://www.w3.org/1999/02/22-rdf-syntax-ns#"
   xmlns:svg="http://www.w3.org/2000/svg"
   xmlns="http://www.w3.org/2000/svg"
   xmlns:xlink="http://www.w3.org/1999/xlink"
   xmlns:sodipodi="http://sodipodi.sourceforge.net/DTD/sodipodi-0.dtd"
   xmlns:inkscape="http://www.inkscape.org/namespaces/inkscape"
   height="48"
   viewBox="0 0 48 48"
   width="48"
   id="svg2"
   version="1.1"
   inkscape:version="0.91 r13725"
   sodipodi:docname="marcador.svg"
   inkscape:export-filename="C:\Users\abner\Documents\Projetos\BusTracker\app\src\main\res\drawable\tag.png"
   inkscape:export-xdpi="960"
   inkscape:export-ydpi="960"
   style="fill:#000000">
  <sodipodi:namedview
     pagecolor="#ffffff"
     bordercolor="#666666"
     borderopacity="1"
     objecttolerance="10"
     gridtolerance="10"
     guidetolerance="10"
     inkscape:pageopacity="0"
     inkscape:pageshadow="2"
     inkscape:window-width="2560"
     inkscape:window-height="1024"
     id="namedview8"
     showgrid="false"
     inkscape:zoom="12.988994"
     inkscape:cx="2.463945"
     inkscape:cy="24.390496"
     inkscape:window-x="0"
     inkscape:window-y="30"
     inkscape:window-maximized="1"
     inkscape:current-layer="svg2"
     inkscape:snap-bbox="true"
     inkscape:bbox-nodes="true">
    <inkscape:grid
       spacingy="1"
       spacingx="1"
       empspacing="2"
       id="grid4228"
       type="xygrid" />
  </sodipodi:namedview>
  <metadata
     id="metadata12">
    <rdf:RDF>
      <cc:Work
         rdf:about="">
        <dc:format>image/svg+xml</dc:format>
        <dc:type
           rdf:resource="http://purl.org/dc/dcmitype/StillImage" />
        <dc:title></dc:title>
      </cc:Work>
    </rdf:RDF>
  </metadata>
  <defs
     id="defs10">
    <linearGradient
       inkscape:collect="always"
       id="linearGradient5041">
      <stop
         style="stop-color:#ffffff;stop-opacity:1;"
         offset="0"
         id="stop5043" />
      <stop
         style="stop-color:#e7e7e7;stop-opacity:1"
         offset="1"
         id="stop5045" />
    </linearGradient>
    <linearGradient
       inkscape:collect="always"
       id="linearGradient5033">
      <stop
         style="stop-color:#00b4f6;stop-opacity:1"
         offset="0"
         id="stop5035" />
      <stop
         style="stop-color:#013054;stop-opacity:1"
         offset="1"
         id="stop5037" />
    </linearGradient>
    <filter
       id="filter4558"
       inkscape:label="Drop Shadow"
       style="color-interpolation-filters:sRGB;">
      <feFlood
         id="feFlood4560"
         result="flood"
         flood-color="rgb(0,0,0)"
         flood-opacity="0.313726" />
      <feComposite
         id="feComposite4562"
         result="composite1"
         operator="in"
         in2="SourceGraphic"
         in="flood" />
      <feGaussianBlur
         id="feGaussianBlur4564"
         result="blur"
         stdDeviation="0.5"
         in="composite1" />
      <feOffset
         id="feOffset4566"
         result="offset"
         dy="0.5"
         dx="2.77556e-017" />
      <feComposite
         id="feComposite4568"
         result="composite2"
         operator="over"
         in2="offset"
         in="SourceGraphic" />
    </filter>
    <linearGradient
       inkscape:collect="always"
       xlink:href="#linearGradient5033"
       id="linearGradient5039"
       x1="6.7868481"
       y1="7.0983562"
       x2="39.793518"
       y2="40.105026"
       gradientUnits="userSpaceOnUse"
       gradientTransform="matrix(0.82419104,0,0,0.82419104,4.2194154,0.85430945)" />
    <linearGradient
       inkscape:collect="always"
       xlink:href="#linearGradient5041"
       id="linearGradient5047"
       x1="2.721947"
       y1="5.5376439"
       x2="42.244598"
       y2="45.060299"
       gradientUnits="userSpaceOnUse"
       gradientTransform="matrix(0.82419102,0,0,0.82419102,4.1803509,0.85430944)" />
    <linearGradient
       inkscape:collect="always"
       xlink:href="#linearGradient5041"
       id="linearGradient5055"
       x1="10.180077"
       y1="12.995777"
       x2="36.365196"
       y2="39.180897"
       gradientUnits="userSpaceOnUse"
       gradientTransform="matrix(1.1553986,0,0,1.1553986,-3.7288528,-3.7302791)" />
    <linearGradient
       inkscape:collect="always"
       xlink:href="#linearGradient5041"
       id="linearGradient4174"
       gradientUnits="userSpaceOnUse"
       x1="10.180077"
       y1="12.995777"
       x2="36.365196"
       y2="39.180897"
       gradientTransform="matrix(1.1553986,0,0,1.1553986,-3.7288528,-3.7302791)" />
    <filter
       id="filter4558-7"
       inkscape:label="Drop Shadow"
       style="color-interpolation-filters:sRGB">
      <feFlood
         id="feFlood4560-8"
         result="flood"
         flood-color="rgb(0,0,0)"
         flood-opacity="0.313726" />
      <feComposite
         id="feComposite4562-7"
         result="composite1"
         operator="in"
         in2="SourceGraphic"
         in="flood" />
      <feGaussianBlur
         id="feGaussianBlur4564-5"
         result="blur"
         stdDeviation="0.5"
         in="composite1" />
      <feOffset
         id="feOffset4566-2"
         result="offset"
         dy="0.5"
         dx="2.77556e-017" />
      <feComposite
         id="feComposite4568-5"
         result="composite2"
         operator="over"
         in2="offset"
         in="SourceGraphic" />
    </filter>
    <filter
       inkscape:collect="always"
       style="color-interpolation-filters:sRGB"
       id="filter8481"
       x="-0.086626223"
       width="1.1732524"
       y="-0.073064346"
       height="1.1461287">
      <feGaussianBlur
         inkscape:collect="always"
         stdDeviation="1.3232211"
         id="feGaussianBlur8483" />
    </filter>
  </defs>
  <path
     inkscape:connector-curvature="0"
     id="path4159"
     d="m 23.960936,2.2675781 0,0.00391 C 13.820689,2.3127717 5.66992,10.484471 5.66992,20.634766 c 0,15.597123 15.12717,23.241046 18.291016,25.054687 l 0,0.04297 c 0.0089,-0.0051 0.02997,-0.01626 0.03906,-0.02148 0.0087,0.005 0.02856,0.01655 0.03711,0.02148 l 0,-0.04297 c 3.163846,-1.813641 18.292969,-9.457564 18.292969,-25.054687 0,-10.150295 -8.152722,-18.3219943 -18.292969,-18.3632816 l 0,-0.00391 c -0.01254,0 -0.02458,0.00193 -0.03711,0.00195 -0.01319,-2.75e-5 -0.02587,-0.00195 -0.03906,-0.00195 z"
     style="opacity:1;fill:#000000;fill-opacity:1;stroke:none;stroke-width:7.19999981;stroke-linecap:round;stroke-linejoin:round;stroke-miterlimit:4;stroke-dasharray:none;stroke-opacity:1;filter:url(#filter8481)"
     inkscape:export-xdpi="70"
     inkscape:export-ydpi="70"
     transform="matrix(1.042154,0,0,1.0626928,-1.0116927,-1.5046246)" />
  <path
     style="opacity:1;fill:url(#linearGradient5047);fill-opacity:1;stroke:none;stroke-width:7.19999981;stroke-linecap:round;stroke-linejoin:round;stroke-miterlimit:4;stroke-dasharray:none;stroke-opacity:1;filter:url(#filter4558)"
     d="m 23.960936,2.2675781 0,0.00391 C 13.820689,2.3127717 5.66992,10.484471 5.66992,20.634766 c 0,15.597123 15.12717,23.241046 18.291016,25.054687 l 0,0.04297 c 0.0089,-0.0051 0.02997,-0.01626 0.03906,-0.02148 0.0087,0.005 0.02856,0.01655 0.03711,0.02148 l 0,-0.04297 c 3.163846,-1.813641 18.292969,-9.457564 18.292969,-25.054687 0,-10.150295 -8.152722,-18.3219943 -18.292969,-18.3632816 l 0,-0.00391 c -0.01254,0 -0.02458,0.00193 -0.03711,0.00195 -0.01319,-2.75e-5 -0.02587,-0.00195 -0.03906,-0.00195 z"
     id="rect4158"
     inkscape:connector-curvature="0"
     inkscape:export-xdpi="70"
     inkscape:export-ydpi="70" />
  <path
     style="opacity:1;fill:url(#linearGradient5039);fill-opacity:1;stroke:none;stroke-width:7.19999981;stroke-linecap:round;stroke-linejoin:round;stroke-miterlimit:4;stroke-dasharray:none;stroke-opacity:1"
     d="m 24.000001,5.0218571 c 8.649624,0 15.613039,6.9634149 15.613039,15.6130379 0,8.649623 -6.963415,15.613038 -15.613039,15.613038 -8.649622,0 -15.6130381,-6.963415 -15.6130381,-15.613038 0,-8.649623 6.9634161,-15.6130379 15.6130381,-15.6130379 z"
     id="rect4218"
     inkscape:connector-curvature="0"
     sodipodi:nodetypes="sscss"
     inkscape:export-xdpi="70"
     inkscape:export-ydpi="70" />
  <g
     id="g4240"
     style="fill:url(#linearGradient5055);fill-opacity:1"
     transform="matrix(0.71333913,0,0,0.71333913,6.8793519,3.515263)"
     inkscape:export-xdpi="70"
     inkscape:export-ydpi="70">
    <path
       style="fill:url(#linearGradient4174);fill-opacity:1;stroke:none"
       inkscape:connector-curvature="0"
       id="path6"
       d="m 12.205956,30.635236 c 0,1.29707 0.574838,2.461487 1.473943,3.272157 l 0,2.623621 c 0,0.810671 0.663275,1.473947 1.473948,1.473947 l 1.473944,0 c 0.810672,0 1.473945,-0.663276 1.473945,-1.473947 l 0,-1.473944 11.791566,0 0,1.473944 c 0,0.810671 0.663274,1.473947 1.473945,1.473947 l 1.473945,0 c 0.810669,0 1.473946,-0.663276 1.473946,-1.473947 l 0,-2.623621 c 0.899104,-0.81067 1.473944,-1.975087 1.473944,-3.272157 l 0,-14.739453 C 35.789082,10.736976 30.512358,10 23.997519,10 c -6.51484,0 -11.791563,0.736976 -11.791563,5.895783 l 0,14.739453 z m 5.158807,1.473947 c -1.223374,0 -2.210916,-0.987546 -2.210916,-2.21092 0,-1.223375 0.987542,-2.210916 2.210916,-2.210916 1.223378,0 2.210922,0.987541 2.210922,2.210916 0,1.223374 -0.987544,2.21092 -2.210922,2.21092 z m 13.265512,0 c -1.223375,0 -2.21092,-0.987546 -2.21092,-2.21092 0,-1.223375 0.987545,-2.210916 2.21092,-2.210916 1.223374,0 2.210917,0.987541 2.210917,2.210916 0,1.223374 -0.987543,2.21092 -2.210917,2.21092 z m 2.210917,-8.843675 -17.687345,0 0,-7.369725 17.687345,0 0,7.369725 z" />
  </g>
</svg>
